<?xml version="1.0" standalone="no"?>
<!DOCTYPE svg PUBLIC "-//W3C//DTD SVG 20010904//EN"
 "http://www.w3.org/TR/2001/REC-SVG-20010904/DTD/svg10.dtd">
<svg version="1.0" xmlns="http://www.w3.org/2000/svg"
 width="354.000000pt" height="472.000000pt" viewBox="0 0 354.000000 472.000000"
 preserveAspectRatio="xMidYMid meet">

<g transform="translate(0.000000,472.000000) scale(0.100000,-0.100000)"
fill="#000000" stroke="none">
<path d="M0 2360 l0 -2360 1770 0 1770 0 0 2360 0 2360 -1770 0 -1770 0 0
-2360z m2085 1581 c12 -4 27 -7 41 -9 18 -3 93 -121 100 -158 3 -19 11 -34 18
-34 11 0 36 -86 36 -127 0 -11 11 -41 25 -64 14 -24 25 -53 25 -64 0 -12 4
-25 9 -30 28 -32 59 -312 42 -380 -15 -59 -14 -105 2 -105 7 -1 5 -6 -5 -14
-25 -18 -22 -43 4 -52 16 -5 27 0 45 20 30 36 29 48 -4 41 -24 -5 -25 -4 -7 4
15 7 23 22 28 57 9 68 8 81 -9 98 -14 13 -13 19 6 55 12 23 27 41 34 41 14 0
25 -30 25 -70 0 -20 2 -22 10 -10 27 39 -26 -130 -70 -227 -35 -75 -62 -94
-75 -53 -3 11 -10 20 -13 20 -4 0 -22 -40 -40 -88 -38 -101 -92 -172 -133
-172 -15 0 -41 -15 -65 -36 -21 -20 -56 -48 -76 -62 -21 -13 -38 -28 -38 -32
0 -8 -22 -12 -120 -26 -25 -4 -50 -10 -55 -15 -12 -9 -163 -13 -241 -7 -48 5
-86 23 -196 99 -15 11 -32 19 -37 19 -6 0 -15 8 -20 19 -6 10 -25 28 -44 38
-25 15 -46 45 -87 126 l-53 107 -38 0 c-37 0 -38 1 -54 58 -9 31 -23 71 -30
87 -42 93 -65 163 -65 201 0 35 4 43 22 48 18 4 20 8 11 17 -9 9 -10 16 -2 26
25 30 59 1 59 -50 0 -14 8 -42 17 -63 l18 -39 6 130 c7 136 32 243 70 296 10
14 23 46 30 72 9 36 16 47 31 47 11 0 34 11 52 25 18 14 38 25 44 25 6 0 19
12 29 28 10 15 20 29 24 32 3 3 11 15 17 26 6 12 24 24 41 27 16 3 45 23 64
43 33 36 38 37 121 44 47 4 88 9 90 11 6 5 367 5 381 0z m425 -680 c0 -5 -7
-11 -15 -15 -15 -5 -20 5 -8 17 9 10 23 9 23 -2z m7 -73 c-3 -8 -6 -5 -6 6 -1
11 2 17 5 13 3 -3 4 -12 1 -19z m-326 -690 l-9 -33 -1 32 c-1 17 2 40 6 50 12
30 16 -9 4 -49z m-758 -156 c192 -200 229 -230 275 -226 16 1 21 -3 18 -12 -3
-8 -1 -14 5 -14 6 0 17 -7 25 -15 9 -8 28 -15 42 -15 27 0 50 14 202 125 41
30 87 62 102 72 32 21 67 90 75 149 3 24 10 41 14 38 12 -7 11 -224 -2 -309
-6 -38 -14 -104 -18 -145 -10 -94 -50 -328 -61 -355 -12 -29 -21 -74 -25 -125
-2 -25 -18 -136 -35 -248 l-30 -202 -40 -40 c-22 -22 -40 -45 -40 -51 0 -6
-21 -38 -46 -72 -46 -59 -46 -61 -27 -77 11 -8 22 -21 24 -28 3 -8 19 6 39 32
37 50 50 57 50 26 0 -11 -4 -20 -10 -20 -5 0 -16 -16 -25 -35 -9 -19 -23 -39
-31 -46 -19 -15 -18 -54 2 -73 8 -9 16 -29 16 -45 1 -30 -36 -101 -53 -101 -5
0 -9 -8 -9 -17 0 -10 -12 -28 -27 -40 -25 -20 -26 -24 -12 -35 8 -7 18 -21 22
-32 4 -11 13 -16 22 -12 19 7 20 -22 1 -58 -18 -35 -96 -103 -96 -84 0 8 16
33 35 55 19 23 35 47 35 55 0 7 -15 23 -32 35 l-32 22 -25 -34 c-23 -34 -41
-45 -41 -26 0 4 9 20 20 34 11 14 20 28 20 32 0 3 25 31 55 62 30 31 55 59 55
62 0 3 9 17 20 31 23 29 25 40 7 40 -7 0 -19 9 -26 19 -14 18 -15 18 -40 -5
-14 -13 -30 -24 -34 -24 -14 0 2 53 22 75 15 17 27 65 13 50 -2 -2 -12 5 -21
17 l-17 21 -32 -34 c-37 -40 -55 -31 -23 12 16 21 21 38 17 55 -5 18 -2 26 12
32 32 12 88 65 75 69 -18 6 -16 23 2 23 8 0 15 5 15 10 0 6 9 10 19 10 29 0
34 29 9 58 l-23 27 -23 -21 c-19 -18 -20 -23 -7 -28 8 -3 15 -10 15 -16 0 -17
-31 -24 -40 -9 -7 10 -12 7 -20 -13 -12 -25 -55 -56 -65 -46 -10 10 47 98 91
142 43 44 54 75 35 104 -10 17 -47 11 -43 -7 1 -7 -1 -10 -6 -7 -5 3 -18 -7
-29 -23 -26 -35 -123 -116 -123 -103 0 19 59 74 71 66 8 -4 9 -3 5 5 -4 6 3
27 15 47 13 22 18 39 12 43 -5 3 -13 18 -17 34 l-6 27 -41 -26 -40 -25 12 23
c6 13 25 34 41 47 27 22 30 28 25 66 -4 25 -2 46 5 53 6 6 8 18 5 26 -5 13
-11 12 -33 -9 -15 -14 -31 -25 -36 -25 -15 0 3 44 28 68 29 28 30 49 4 81
l-20 23 -20 -23 c-10 -13 -19 -19 -20 -12 0 6 7 18 15 27 8 8 15 19 15 25 0
14 17 14 25 1 3 -5 21 -10 40 -10 19 0 36 -4 40 -10 3 -5 12 -7 20 -3 18 6 19
-10 3 -40 -11 -21 -13 -96 -2 -106 2 -3 20 11 40 30 34 33 35 33 25 7 -6 -15
-24 -46 -41 -69 -32 -44 -40 -95 -18 -117 9 -9 19 -5 45 20 28 27 33 29 33 12
0 -10 -7 -27 -14 -37 -14 -18 -13 -23 21 -86 4 -7 52 55 64 82 10 24 9 39 -5
83 -10 31 -24 58 -32 61 -8 3 -14 16 -14 29 0 14 -9 43 -21 65 -26 51 -21 75
37 171 54 92 72 109 117 111 40 2 39 5 -14 84 -42 61 -57 73 -90 73 l-30 0 27
-45 c14 -25 22 -45 16 -45 -12 0 -62 64 -62 79 0 6 -17 11 -38 11 -38 0 -38
-1 -34 -32 3 -22 18 -45 44 -69 43 -39 41 -60 -2 -29 -35 25 -35 25 -60 0 -20
-20 -20 -20 2 -40 12 -11 18 -20 13 -20 -5 0 4 -13 20 -30 30 -32 18 -43 -13
-12 -22 20 -42 26 -42 12 0 -6 4 -10 9 -10 6 0 6 -12 -1 -30 -8 -25 -7 -34 6
-49 23 -26 20 -31 -16 -25 -53 10 -88 28 -88 46 0 9 -3 18 -8 20 -4 2 -29 29
-56 61 -55 65 -41 79 18 17 43 -45 52 -46 36 -4 -6 15 -9 38 -6 50 5 17 -6 33
-51 73 -31 28 -62 51 -69 51 -14 0 -74 -72 -74 -89 0 -6 11 -11 24 -11 19 0
34 -15 70 -74 80 -128 89 -185 41 -251 -13 -16 -32 -49 -44 -72 -19 -38 -19
-42 -4 -36 13 5 9 -4 -12 -29 -16 -20 -33 -37 -36 -37 -7 -1 -21 60 -49 224
-12 66 -25 126 -30 135 -4 8 -11 38 -15 65 -4 28 -11 55 -15 60 -8 12 -27 100
-36 170 -3 28 -17 113 -30 191 -27 160 -40 295 -31 318 7 18 41 -9 130 -102z
m472 -602 c3 -5 1 -10 -4 -10 -6 0 -11 5 -11 10 0 6 2 10 4 10 3 0 8 -4 11
-10z m-264 -413 c-10 -9 -11 -8 -5 6 3 10 9 15 12 12 3 -3 0 -11 -7 -18z m259
-27 c0 -5 -5 -10 -11 -10 -5 0 -7 5 -4 10 3 6 8 10 11 10 2 0 4 -4 4 -10z
m-280 -169 c-25 -36 -39 -42 -18 -8 8 12 18 28 22 35 5 7 10 11 13 8 3 -3 -5
-19 -17 -35z m10 -171 c-6 -12 -14 -19 -17 -17 -2 3 1 15 7 27 6 12 14 19 17
17 2 -3 -1 -15 -7 -27z m90 -75 c0 -3 -18 -23 -40 -44 -47 -45 -54 -32 -8 16
29 30 48 41 48 28z m-24 -200 c-10 -8 -24 -24 -30 -36 -6 -12 -17 -24 -24 -27
-11 -4 -12 0 -2 19 19 37 42 59 59 59 13 -1 13 -3 -3 -15z m59 -125 c-49 -50
-58 -36 -14 20 22 27 36 37 43 30 7 -7 -3 -23 -29 -50z m-50 -60 c3 -5 -1 -10
-9 -10 -9 0 -16 5 -16 10 0 6 4 10 9 10 6 0 13 -4 16 -10z m65 -273 c0 -8 -11
-24 -25 -37 -14 -13 -25 -19 -25 -13 0 6 7 16 15 23 8 7 15 19 15 26 0 8 5 14
10 14 6 0 10 -6 10 -13z m80 -92 c0 -8 -5 -15 -10 -15 -6 0 -20 -16 -31 -35
-21 -34 -39 -46 -39 -24 0 6 12 28 28 50 28 39 52 51 52 24z"/>
<path d="M1418 3520 c-27 -16 -22 -26 25 -50 23 -12 58 -35 78 -51 34 -27 79
-49 100 -49 19 0 8 52 -16 74 -14 13 -25 28 -25 34 0 30 -128 63 -162 42z"/>
<path d="M1939 3492 c-15 -9 -45 -30 -68 -45 -23 -15 -45 -35 -48 -43 -9 -24
14 -63 41 -70 13 -3 27 -12 30 -20 7 -19 52 -18 60 1 8 22 36 19 36 -4 0 -28
84 -45 93 -18 3 9 7 9 19 0 27 -23 102 -27 132 -8 46 31 34 52 -43 75 -72 21
-128 28 -82 9 37 -14 23 -18 -52 -12 -63 5 -67 7 -61 27 9 31 45 56 81 56 18
0 44 5 58 12 20 9 31 9 45 0 11 -6 26 -9 35 -6 19 8 20 34 0 34 -8 0 -15 -4
-15 -10 0 -5 -5 -10 -11 -10 -6 0 -9 9 -6 20 5 21 -8 29 -15 8 -3 -8 -18 -7
-53 5 -64 22 -143 22 -176 -1z"/>
<path d="M1314 3366 c-40 -18 -49 -32 -30 -51 23 -23 71 -19 89 8 l15 22 13
-27 c9 -21 19 -28 41 -28 37 0 68 16 68 35 0 20 19 19 26 0 6 -15 64 -22 64
-7 0 4 -11 19 -23 33 -23 25 -25 26 -113 18 -49 -4 -100 -11 -114 -15 -23 -7
-24 -6 -11 9 16 20 15 20 -25 3z"/>
<path d="M1776 3035 c-21 -8 -50 -12 -65 -9 -81 19 -85 18 -104 -22 -22 -46
-10 -65 27 -40 31 20 55 20 81 2 23 -15 117 -27 158 -19 36 7 47 47 21 74 -26
26 -72 31 -118 14z"/>
<path d="M1664 2813 c-141 -18 -217 -52 -147 -66 15 -3 48 3 73 13 58 23 249
27 308 6 39 -14 88 -11 98 6 10 15 -18 40 -39 34 -11 -3 -33 2 -49 10 -33 17
-93 16 -244 -3z"/>
<path d="M1736 2689 c-95 -9 -113 -17 -102 -44 5 -15 17 -16 99 -10 92 7 147
27 147 52 0 14 -11 15 -144 2z"/>
<path d="M1775 1988 c-10 -6 -37 -17 -59 -23 -22 -7 -42 -17 -44 -23 -6 -18
47 -26 76 -11 15 7 30 15 35 17 4 2 7 -3 7 -12 0 -13 12 -16 60 -16 33 0 60 4
60 9 0 13 -81 71 -99 71 -9 0 -25 -6 -36 -12z m45 -32 c0 -3 -4 -8 -10 -11 -5
-3 -10 -1 -10 4 0 6 5 11 10 11 6 0 10 -2 10 -4z"/>
<path d="M1602 1893 c-6 -2 -10 -9 -6 -14 8 -14 21 -11 28 6 6 15 1 17 -22 8z"/>
<path d="M1644 1865 c-19 -14 -18 -15 6 -34 21 -17 26 -18 33 -5 9 16 0 54
-12 54 -4 0 -16 -7 -27 -15z"/>
<path d="M1945 1178 c-8 -18 -23 -45 -32 -59 -14 -22 -15 -31 -4 -57 l13 -31
39 20 c35 18 39 23 38 57 -3 95 -27 126 -54 70z"/>
</g>
</svg>
